<svg width="25" height="25" viewBox="0 0 25 25" fill="none" xmlns="http://www.w3.org/2000/svg">
<circle cx="12.5" cy="12.2504" r="10" fill="#00B39B" stroke="#00B39B" stroke-width="2"/>
<mask id="mask0_11_1013" style="mask-type:alpha" maskUnits="userSpaceOnUse" x="2" y="2" width="21" height="21">
<rect x="2.72217" y="2.4726" width="19.5556" height="19.5556" fill="#D9D9D9"/>
</mask>
<g mask="url(#mask0_11_1013)">
<path d="M17.2331 7.73472L10.5049 14.4629L7.7891 11.7279L7.78848 11.7273C7.58013 11.519 7.32361 11.4096 7.03115 11.4096C6.73868 11.4096 6.48217 11.519 6.27382 11.7273C6.06722 11.9339 5.95486 12.1874 5.94608 12.4771C5.93714 12.7722 6.04329 13.0318 6.25345 13.242L9.75715 16.7457C9.96384 16.9524 10.2164 17.0633 10.5043 17.0633C10.7922 17.0633 11.0448 16.9524 11.2514 16.7457L14.9996 12.9975L18.7477 9.24939C18.9561 9.04103 19.0654 8.78452 19.0654 8.49205C19.0654 8.19959 18.9561 7.94307 18.7477 7.73472C18.5394 7.52637 18.2829 7.41705 17.9904 7.41705C17.6979 7.41705 17.4414 7.52637 17.2331 7.73472Z" fill="white" stroke="white" stroke-width="0.5"/>
</g>
</svg>
